<svg width="867" height="412" viewBox="0 0 867 412" fill="none" xmlns="http://www.w3.org/2000/svg">
<path d="M867 9.17161C831.093 -6.41446 736.04 -10.4084 643.078 98.3045C526.877 234.196 224.922 225.428 122.291 273.648C40.1863 312.223 7.22005 381.289 1.00001 411" stroke="#5B95D2"/>
<path d="M867 164.809C838.772 155.26 764.047 152.813 690.967 219.419C599.616 302.676 362.237 297.305 281.555 326.848C217.01 350.482 191.094 392.797 186.204 411" stroke="#5B95D2"/>
<path d="M867 286.49C846.167 281.66 791.017 280.423 737.081 314.108C669.661 356.216 494.467 353.499 434.921 368.44C387.284 380.393 368.157 401.794 364.549 411" stroke="#5B95D2"/>
<path d="M867 94.0649C835.075 81.7717 750.562 78.6216 667.909 164.367C564.593 271.549 296.122 264.634 204.872 302.666C131.873 333.092 102.562 387.566 97.0317 411" stroke="#5B95D2"/>
<path d="M867 215.745C841.901 208.172 775.457 206.231 710.477 259.056C629.25 325.088 418.181 320.828 346.441 344.259C289.049 363.003 266.005 396.563 261.657 411" stroke="#5B95D2"/>
<path d="M867 348.745C851.357 346.33 809.948 345.711 769.45 362.554C718.827 383.608 587.283 382.25 542.572 389.72C506.804 395.697 492.442 406.397 489.733 411" stroke="#5B95D2"/>
</svg>
